<?xml version="1.0" encoding="UTF-8" standalone="no"?>
<!-- Created with Inkscape (http://www.inkscape.org/) -->

<svg
   width="159.22481mm"
   height="150.77252mm"
   viewBox="0 0 159.22481 150.77252"
   version="1.1"
   id="svg1"
   xml:space="preserve"
   inkscape:version="1.4 (86a8ad7, 2024-10-11)"
   xmlns:inkscape="http://www.inkscape.org/namespaces/inkscape"
   xmlns:sodipodi="http://sodipodi.sourceforge.net/DTD/sodipodi-0.dtd"
   xmlns="http://www.w3.org/2000/svg"
   xmlns:svg="http://www.w3.org/2000/svg"><sodipodi:namedview
     id="namedview1"
     pagecolor="#ffffff"
     bordercolor="#000000"
     borderopacity="0.25"
     inkscape:showpageshadow="2"
     inkscape:pageopacity="0.0"
     inkscape:pagecheckerboard="0"
     inkscape:deskcolor="#d1d1d1"
     inkscape:document-units="mm"
     inkscape:zoom="1.0396254"
     inkscape:cx="295.29867"
     inkscape:cy="315.01731"
     inkscape:window-width="2560"
     inkscape:window-height="1369"
     inkscape:window-x="1192"
     inkscape:window-y="-8"
     inkscape:window-maximized="1"
     inkscape:current-layer="layer1" /><defs
     id="defs1" /><g
     inkscape:label="Layer 1"
     inkscape:groupmode="layer"
     id="layer1"
     transform="translate(-26.824591,-65.213208)"><path
       style="fill:#2d9357;fill-opacity:1"
       d="m 63.023089,215.47971 c -1.960555,-1.03749 -5.563724,-5.54589 -6.872457,-8.59904 -0.48755,-1.13741 -1.059316,-1.60536 -1.069789,-0.87555 -0.0026,0.1819 -0.176028,1.46182 -0.385373,2.84427 -0.451924,2.98437 -1.005426,3.70417 -2.848391,3.70417 -1.711144,0 -3.256876,-0.94186 -5.864798,-3.57358 -2.946872,-2.97376 -5.131189,-5.97708 -6.907638,-9.49763 l -1.348024,-2.6715 -5.27312,-0.13229 -5.273121,-0.13229 -0.187354,-1.05834 c -0.445602,-2.51713 0.02125,-7.74707 1.066384,-11.94634 1.199769,-4.82056 3.823677,-10.69297 6.691659,-14.97621 2.570873,-3.83951 4.288207,-5.87542 10.625585,-12.59672 3.600178,-3.81828 4.579252,-5.53378 5.430987,-9.51599 0.290398,-1.35773 0.598949,-2.53955 0.685668,-2.62627 0.204622,-0.20462 7.120903,-1.43961 12.19124,-2.17689 4.410806,-0.64138 5.319303,-0.90185 5.71331,-1.63806 0.345339,-0.64527 0.08308,-1.47133 -0.528777,-1.66553 -1.320488,-0.41911 -28.559251,4.24359 -31.645766,5.41708 -1.022996,0.38894 -2.311278,0.32065 -2.995804,-0.15881 -0.899471,-0.63002 -0.696003,-1.90305 0.42441,-2.65539 1.127736,-0.75725 6.391895,-2.015 12.363878,-2.95407 l 4.762499,-0.74888 -0.09663,-2.92523 c -0.05818,-1.76135 0.008,-2.9899 0.166354,-3.08777 0.27071,-0.1673 7.472007,0.57984 12.635405,1.31094 3.551211,0.50282 4.568029,0.43375 5.082263,-0.34525 0.350731,-0.53131 0.32943,-0.63866 -0.239647,-1.20774 -0.685609,-0.68561 -0.81298,-0.70724 -13.71129,-2.32907 -3.565261,-0.4483 -7.256198,-0.917 -8.202083,-1.04156 -0.945886,-0.12456 -3.803385,-0.41612 -6.35,-0.64791 -6.963189,-0.6338 -8.202083,-0.9952 -8.202083,-2.39266 0,-0.80138 0.745783,-1.39929 1.991287,-1.59644 1.233341,-0.19523 8.065762,0.24344 12.923819,0.82977 1.887736,0.22784 3.506648,0.31013 3.632146,0.18463 0.124528,-0.12453 0.414327,-2.06857 0.643998,-4.3201 1.108116,-10.86317 4.099619,-20.155292 9.282237,-28.83223 2.377988,-3.98132 4.250129,-6.374364 7.844955,-10.027733 8.93483,-9.080339 19.478771,-14.15965 31.905942,-15.369987 7.25397,-0.706496 15.83404,0.211659 22.34201,2.390824 3.23481,1.083159 8.77652,3.771889 11.56277,5.610028 14.58009,9.618732 23.91247,26.666438 25.74563,47.030198 l 0.32154,3.57188 1.18777,-0.0262 c 0.65327,-0.0144 3.11875,-0.23107 5.47885,-0.48144 2.36009,-0.25037 5.82991,-0.4767 7.71071,-0.50294 3.03158,-0.0423 3.48291,0.009 3.97715,0.4563 0.68231,0.61685 0.71834,1.51738 0.0837,2.09172 -0.65229,0.59032 -2.3108,0.87995 -7.86055,1.37273 -2.61937,0.23258 -7.32234,0.76869 -10.45104,1.19135 -3.1287,0.42266 -8.18885,1.08183 -11.24479,1.4648 -3.24044,0.4061 -5.80437,0.85492 -6.15156,1.07685 -0.68745,0.4394 -0.7882,1.46636 -0.19238,1.96085 0.46093,0.38253 0.78728,0.3583 10.44498,-0.77557 3.56526,-0.41858 6.57159,-0.70708 6.68073,-0.64111 0.10914,0.066 0.19844,1.34851 0.19844,2.85007 0,1.87227 0.10392,2.8099 0.33073,2.98405 0.1819,0.13966 2.41432,0.57992 4.96093,0.97835 5.63934,0.88231 10.84907,2.14802 11.98748,2.91238 1.64538,1.10474 1.03908,3.06388 -0.94818,3.06388 -0.41206,0 -1.78456,-0.29059 -3.04998,-0.64575 -4.67441,-1.31195 -29.14166,-5.38324 -30.24574,-5.03282 -0.61168,0.19414 -0.86556,1.02255 -0.51443,1.67863 0.35546,0.66418 1.32259,0.95528 4.91148,1.47828 5.7646,0.84008 12.70651,2.07903 13.02373,2.32441 0.17805,0.13773 0.39689,0.68494 0.48631,1.21602 0.88776,5.27231 1.86408,7.02381 6.7469,12.10379 2.12454,2.21032 4.79785,5.13282 5.94069,6.49445 5.93389,7.06989 10.06408,15.95839 11.23171,24.17153 0.37894,2.66553 0.35088,8.15144 -0.0437,8.54604 -0.22428,0.22428 -1.76845,0.3175 -5.25927,0.3175 -3.63209,0 -5.01379,0.0876 -5.21353,0.33073 -0.14947,0.1819 -0.87803,1.52135 -1.61902,2.97656 -1.70616,3.35066 -4.10195,6.54525 -6.98082,9.30833 -2.58836,2.48425 -3.91212,3.25938 -5.56636,3.25938 -1.9086,0 -2.40777,-0.72122 -2.8369,-4.09887 -0.19427,-1.52917 -0.4479,-2.7803 -0.5636,-2.7803 -0.11571,0 -0.58451,0.74414 -1.04178,1.65365 -1.90107,3.7812 -4.99676,7.45603 -6.97853,8.28407 -2.27702,0.9514 -4.07973,0.0567 -4.74289,-2.35385 -0.2067,-0.75139 -0.70271,-3.00327 -1.10224,-5.00418 -0.39953,-2.00091 -0.80602,-3.63802 -0.90333,-3.63802 -0.0973,0 -0.63449,1.20826 -1.19375,2.68503 -1.67461,4.42189 -3.68537,6.94185 -5.81488,7.28742 -0.9148,0.14846 -1.0538,0.0701 -2.39762,-1.35092 -2.35118,-2.48635 -4.84825,-8.00875 -6.30299,-13.93941 l -0.61012,-2.48733 -19.98533,-0.0678 c -15.791577,-0.0536 -20.039975,0.002 -20.245743,0.26458 -0.143228,0.18281 -0.40131,1.07027 -0.573517,1.97214 -0.913724,4.78524 -3.906403,11.54164 -6.207078,14.01337 -1.291321,1.38732 -1.529896,1.53277 -2.514288,1.53277 -0.945083,0 -1.25822,-0.16807 -2.389793,-1.28263 -1.50527,-1.48263 -2.452806,-3.11395 -3.587143,-6.17578 -0.44395,-1.19832 -0.922315,-2.18612 -1.063032,-2.19511 -0.140717,-0.009 -0.526737,1.26912 -0.857821,2.84023 -1.377829,6.53828 -1.409769,6.64765 -2.183,7.4754 -0.620328,0.66406 -0.953681,0.80307 -1.902711,0.79343 -0.63284,-0.006 -1.567337,-0.23222 -2.076659,-0.50174 z m 2.389001,-4.46206 c 0.189206,-0.39218 0.388056,-1.90368 0.441891,-3.35888 0.273981,-7.40606 0.615171,-12.81489 0.846795,-13.42411 0.327789,-0.86215 1.312723,-1.78943 1.900682,-1.78943 1.135365,0 1.905012,1.67031 4.9985,10.84791 0.910569,2.70143 2.262158,5.98668 2.80187,6.81038 0.888721,1.35636 1.773285,0.32362 3.010958,-3.51533 1.121465,-3.47851 1.551828,-5.53166 1.893977,-9.03567 0.557845,-5.71301 0.0023,-8.82578 -2.137594,-11.97689 -1.920551,-2.82814 -4.824622,-4.67583 -9.002331,-5.72767 -2.513584,-0.63285 -10.717315,-0.71079 -13.626041,-0.12945 -8.509326,1.70067 -13.814287,5.95225 -14.330974,11.48533 -0.349732,3.7452 1.38431,9.24351 4.229902,13.41222 1.063059,1.55735 3.60901,4.23333 4.027623,4.23333 0.570052,0 0.649277,-0.71125 0.658148,-5.90862 0.01351,-7.91462 0.463563,-9.97586 2.22372,-10.18465 1.100678,-0.13056 1.675585,0.6029 2.436584,3.10855 2.195727,7.22962 5.276988,13.36291 7.765072,15.4565 0.927208,0.78019 1.373492,0.70741 1.861218,-0.30352 z m 84.55492,-0.0934 c 2.16294,-2.40402 4.77721,-7.5846 6.4569,-12.79533 1.51008,-4.68457 1.80661,-5.26678 2.73663,-5.37316 1.07386,-0.12283 1.92797,0.78347 2.29331,2.43345 0.16526,0.7464 0.36862,4.07641 0.4519,7.4 0.16769,6.69247 0.2455,6.94732 1.69945,5.56699 2.72706,-2.589 5.64307,-7.6709 6.62133,-11.53939 0.78539,-3.1058 0.61009,-6.91679 -0.40896,-8.89105 -1.77898,-3.44648 -6.15955,-6.24319 -12.11921,-7.73732 -3.15513,-0.79102 -9.48505,-0.9868 -13.1479,-0.40666 -6.08557,0.96386 -10.55316,3.98824 -12.22321,8.27464 -0.82285,2.11193 -1.03396,8.14807 -0.41249,11.79398 0.47393,2.78037 2.01049,8.21552 2.73204,9.66385 0.64828,1.30126 1.3152,1.67717 1.80521,1.01752 0.63316,-0.85237 1.929,-4.19258 4.10229,-10.57425 2.13041,-6.25577 2.69809,-7.31225 3.92908,-7.31225 0.59029,0 1.49201,0.94929 1.88494,1.98437 0.17782,0.46843 0.38655,3.83281 0.50929,8.20886 0.16897,6.02403 0.28843,7.57068 0.63679,8.24433 0.67252,1.30052 1.31009,1.31128 2.45261,0.0414 z m -39.52329,-74.12599 c 4.94552,-1.57049 7.93119,-5.05263 7.97837,-9.30506 0.0316,-2.85092 -0.6205,-4.40908 -2.72242,-6.50475 -2.57127,-2.56362 -5.88359,-3.95321 -9.40665,-3.94629 -4.57393,0.009 -9.494623,2.86458 -11.164747,6.47915 -0.604333,1.30793 -0.735142,1.9611 -0.742785,3.70894 -0.0082,1.87301 0.09237,2.32801 0.858709,3.88536 2.453411,4.98581 9.315253,7.55126 15.199523,5.68265 z M 86.479293,120.17607 c 3.658968,-1.36899 6.166406,-5.81727 6.173987,-10.95286 0.0074,-4.99158 -2.235041,-9.264138 -5.706857,-10.873501 -2.031325,-0.941622 -3.407748,-1.041603 -5.176837,-0.376036 -3.843397,1.445961 -6.1916,5.280377 -6.490625,10.598637 -0.330462,5.8774 2.059572,10.21934 6.498397,11.80556 1.412843,0.50488 2.994617,0.43699 4.701935,-0.2018 z m -1.363497,-2.8053 c -2.579348,-0.47225 -3.998617,-2.72202 -3.789452,-6.00689 0.375362,-5.89495 6.014224,-7.52927 8.049472,-2.33298 0.668706,1.7073 0.420244,4.92729 -0.482741,6.25615 -1.039968,1.53045 -2.475095,2.32213 -3.777279,2.08372 z m 46.106294,2.9979 c 3.93586,-1.38865 6.10171,-4.96711 6.35131,-10.49376 0.14163,-3.13614 -0.19672,-4.75608 -1.55567,-7.44815 -3.38949,-6.714537 -11.19753,-6.335832 -14.49998,0.70328 -1.11942,2.38601 -1.43082,4.08372 -1.28302,6.99482 0.20919,4.12001 1.79317,7.26627 4.75648,9.44773 1.51091,1.11227 1.6792,1.17056 3.3798,1.17056 0.98434,0 2.26733,-0.16852 2.85108,-0.37448 z m -5.07109,-3.07603 c -2.16063,-0.64631 -3.53711,-3.4157 -3.19241,-6.42293 0.30751,-2.68291 1.4594,-4.38442 3.29991,-4.87451 1.27869,-0.34049 2.28954,-10e-4 3.49107,1.17218 2.91112,2.84263 2.1725,8.54553 -1.29976,10.03544 -0.95318,0.409 -1.1996,0.41863 -2.29881,0.0898 z"
       id="path358" /></g></svg>
